<svg width="1920" height="64" viewBox="0 0 1920 64" fill="none" xmlns="http://www.w3.org/2000/svg">
<path d="M36.158 37.112C38.314 37.112 39.812 36.006 39.812 34.186C39.812 30.364 34.478 31.988 34.478 29.818C34.478 29.132 35.08 28.684 36.046 28.684C37.082 28.684 37.754 29.258 37.838 30.112H39.602C39.518 28.278 38.118 27.088 36.046 27.088C34.058 27.088 32.672 28.208 32.672 29.818C32.672 33.57 37.936 32.114 37.936 34.214C37.936 35.082 37.208 35.502 36.158 35.502C34.982 35.502 34.254 34.802 34.156 33.71H32.378C32.476 35.768 33.932 37.112 36.158 37.112ZM49.3311 37L45.3691 31.092L48.9671 27.2H46.6571L42.7231 31.47V27.2H40.8611V37H42.7231V33.948L44.0951 32.464L47.0351 37H49.3311ZM51.9451 37V27.2H50.0831V37H51.9451ZM55.3835 37V30.098L59.6395 37H61.6275V27.2H59.7795V34.116L55.5375 27.2H53.5355V37H55.3835ZM66.4423 37.112C68.5983 37.112 70.0963 36.006 70.0963 34.186C70.0963 30.364 64.7623 31.988 64.7623 29.818C64.7623 29.132 65.3643 28.684 66.3303 28.684C67.3663 28.684 68.0383 29.258 68.1223 30.112H69.8863C69.8023 28.278 68.4023 27.088 66.3303 27.088C64.3423 27.088 62.9563 28.208 62.9563 29.818C62.9563 33.57 68.2203 32.114 68.2203 34.214C68.2203 35.082 67.4923 35.502 66.4423 35.502C65.2663 35.502 64.5383 34.802 64.4403 33.71H62.6623C62.7603 35.768 64.2163 37.112 66.4423 37.112ZM74.9033 37V28.796H77.8573V27.2H70.0873V28.796H73.0553V37H74.9033ZM85.6067 34.382C85.5367 33.486 85.1027 32.758 84.4307 32.338C85.2427 31.918 85.7467 31.232 85.7467 30.224C85.7467 28.446 84.5427 27.2 82.4987 27.2H78.4807V37H80.3427V33.318H82.4567C83.1847 33.318 83.7027 33.85 83.7727 34.592L84.0107 37H85.8447L85.6067 34.382ZM82.4147 28.754C83.5067 28.754 83.9547 29.44 83.9547 30.224C83.9547 31.008 83.5067 31.722 82.4147 31.722H80.3427V28.754H82.4147ZM89.3322 37V27.2H87.4702V37H89.3322ZM95.3466 37.112C97.7546 37.112 99.5466 35.726 99.7426 33.696H97.8946C97.7266 34.76 96.6906 35.502 95.3466 35.502C93.6386 35.502 92.3506 34.326 92.3506 32.1C92.3506 29.874 93.6386 28.684 95.3466 28.684C96.6626 28.684 97.6986 29.426 97.8386 30.504H99.7706C99.5046 28.474 97.7126 27.088 95.3466 27.088C92.7846 27.088 90.4886 28.768 90.4886 32.1C90.4886 35.432 92.7426 37.112 95.3466 37.112Z" fill="#1A1B1C"/>
<g opacity="0.6">
<path d="M121 40H119C117.895 40 117 39.1046 117 38V25C117 23.8954 117.895 23 119 23H121" stroke="#1A1B1C"/>
<path d="M136.366 37L132.586 27.2H130.85L127.084 37H128.988L129.828 34.718H133.608L134.448 37H136.366ZM131.732 29.566L133.048 33.15H130.416L131.732 29.566ZM138.871 37V30.098L143.127 37H145.115V27.2H143.267V34.116L139.025 27.2H137.023V37H138.871ZM155.138 37L151.358 27.2H149.622L145.856 37H147.76L148.6 34.718H152.38L153.22 37H155.138ZM150.504 29.566L151.82 33.15H149.188L150.504 29.566ZM162.235 37V35.39H157.657V27.2H155.795V37H162.235ZM166.294 37V32.926L169.668 27.2H167.68L165.37 31.204L163.074 27.2H161.072L164.446 32.926V37H166.294ZM173.125 37.112C175.281 37.112 176.779 36.006 176.779 34.186C176.779 30.364 171.445 31.988 171.445 29.818C171.445 29.132 172.047 28.684 173.013 28.684C174.049 28.684 174.721 29.258 174.805 30.112H176.569C176.485 28.278 175.085 27.088 173.013 27.088C171.025 27.088 169.639 28.208 169.639 29.818C169.639 33.57 174.903 32.114 174.903 34.214C174.903 35.082 174.175 35.502 173.125 35.502C171.949 35.502 171.221 34.802 171.123 33.71H169.345C169.443 35.768 170.899 37.112 173.125 37.112ZM179.69 37V27.2H177.828V37H179.69ZM184.501 37.112C186.657 37.112 188.155 36.006 188.155 34.186C188.155 30.364 182.821 31.988 182.821 29.818C182.821 29.132 183.423 28.684 184.389 28.684C185.425 28.684 186.097 29.258 186.181 30.112H187.945C187.861 28.278 186.461 27.088 184.389 27.088C182.401 27.088 181.015 28.208 181.015 29.818C181.015 33.57 186.279 32.114 186.279 34.214C186.279 35.082 185.551 35.502 184.501 35.502C183.325 35.502 182.597 34.802 182.499 33.71H180.721C180.819 35.768 182.275 37.112 184.501 37.112Z" fill="#1A1B1C"/>
<path d="M195 40H197C198.105 40 199 39.1046 199 38V25C199 23.8954 198.105 23 197 23H195" stroke="#1A1B1C"/>
</g>
</svg>
