<svg width="217" height="13" viewBox="0 0 217 13" fill="none" xmlns="http://www.w3.org/2000/svg">
<path d="M2.85219 12V7.744H5.22019C7.55619 7.744 8.94819 6.304 8.94819 4.272C8.94819 2.24 7.55619 0.799999 5.22019 0.799999H0.724191V12H2.85219ZM2.85219 2.576H5.12419C6.37219 2.576 6.88419 3.376 6.88419 4.272C6.88419 5.168 6.37219 5.968 5.12419 5.968H2.85219V2.576ZM18.1419 9.008C18.0619 7.984 17.5659 7.152 16.7979 6.672C17.7259 6.192 18.3019 5.408 18.3019 4.256C18.3019 2.224 16.9259 0.799999 14.5899 0.799999H9.99794V12H12.1259V7.792H14.5419C15.3739 7.792 15.9659 8.4 16.0459 9.248L16.3179 12H18.4139L18.1419 9.008ZM14.4939 2.576C15.7419 2.576 16.2539 3.36 16.2539 4.256C16.2539 5.152 15.7419 5.968 14.4939 5.968H12.1259V2.576H14.4939ZM27.9037 12V10.16H22.3837V7.168H26.6717V5.344H22.3837V2.624H27.7277V0.799999H20.2717V12H27.9037ZM31.3609 12V7.744H33.7289C36.0649 7.744 37.4569 6.304 37.4569 4.272C37.4569 2.24 36.0649 0.799999 33.7289 0.799999H29.2329V12H31.3609ZM31.3609 2.576H33.6329C34.8809 2.576 35.3929 3.376 35.3929 4.272C35.3929 5.168 34.8809 5.968 33.6329 5.968H31.3609V2.576ZM46.9199 12L42.5999 0.799999H40.6159L36.3119 12H38.4879L39.4479 9.392H43.7679L44.7279 12H46.9199ZM41.6239 3.504L43.1279 7.6H40.1199L41.6239 3.504ZM55.8151 9.008C55.7351 7.984 55.2391 7.152 54.4711 6.672C55.3991 6.192 55.9751 5.408 55.9751 4.256C55.9751 2.224 54.5991 0.799999 52.2631 0.799999H47.6711V12H49.7991V7.792H52.2151C53.0471 7.792 53.6391 8.4 53.7191 9.248L53.9911 12H56.0871L55.8151 9.008ZM52.1671 2.576C53.4151 2.576 53.9271 3.36 53.9271 4.256C53.9271 5.152 53.4151 5.968 52.1671 5.968H49.7991V2.576H52.1671ZM60.0728 12V0.799999H57.9448V12H60.0728ZM64.0024 12V4.112L68.8664 12H71.1384V0.799999H69.0264V8.704L64.1784 0.799999H61.8904V12H64.0024ZM77.9371 12.128C79.4411 12.128 80.6731 11.36 81.0891 10.224V12H82.9771V7.824C82.9771 6.752 82.0971 5.984 81.1211 5.984H78.1451V7.6H80.4171C80.7691 7.6 80.9931 7.824 80.9931 8.176C80.9931 9.376 79.5371 10.384 78.0171 10.384C76.0331 10.384 74.4971 8.88 74.4971 6.4C74.4971 3.92 76.0331 2.496 78.0491 2.496C79.5851 2.496 80.6891 3.344 80.8811 4.608H83.0091C82.8331 2.288 80.8171 0.672 78.0651 0.672C75.1531 0.672 72.4651 2.576 72.4651 6.4C72.4651 10.224 75.1051 12.128 77.9371 12.128ZM92.6084 12V7.344L96.4644 0.799999H94.1924L91.5524 5.376L88.9284 0.799999H86.6404L90.4964 7.344V12H92.6084ZM101.528 12.128C104.776 12.128 107.176 9.696 107.176 6.4C107.176 3.104 104.776 0.672 101.528 0.672C98.2644 0.672 95.8644 3.104 95.8644 6.4C95.8644 9.696 98.2644 12.128 101.528 12.128ZM101.512 10.288C99.4804 10.288 97.9924 8.64 97.9924 6.4C97.9924 4.16 99.4804 2.496 101.512 2.496C103.56 2.496 105.048 4.16 105.048 6.4C105.048 8.64 103.56 10.288 101.512 10.288ZM112.701 12.128C115.325 12.128 117.101 10.672 117.101 7.952V0.799999H115.117V7.968C115.117 9.504 114.125 10.272 112.701 10.272C111.277 10.272 110.301 9.504 110.301 7.968V0.799999H108.301V7.952C108.301 10.672 110.093 12.128 112.701 12.128ZM126.864 9.008C126.784 7.984 126.288 7.152 125.52 6.672C126.448 6.192 127.024 5.408 127.024 4.256C127.024 2.224 125.648 0.799999 123.312 0.799999H118.72V12H120.848V7.792H123.264C124.096 7.792 124.688 8.4 124.768 9.248L125.04 12H127.136L126.864 9.008ZM123.216 2.576C124.464 2.576 124.976 3.36 124.976 4.256C124.976 5.152 124.464 5.968 123.216 5.968H120.848V2.576H123.216ZM141.806 12L137.486 0.799999H135.502L131.198 12H133.374L134.334 9.392H138.654L139.614 12H141.806ZM136.51 3.504L138.014 7.6H135.006L136.51 3.504ZM144.669 12V4.112L149.533 12H151.805V0.799999H149.693V8.704L144.845 0.799999H142.557V12H144.669ZM163.26 12L158.94 0.799999H156.956L152.652 12H154.828L155.788 9.392H160.108L161.068 12H163.26ZM157.964 3.504L159.468 7.6H156.46L157.964 3.504ZM171.371 12V10.16H166.139V0.799999H164.011V12H171.371ZM176.01 12V7.344L179.866 0.799999H177.594L174.954 5.376L172.33 0.799999H170.042L173.898 7.344V12H176.01ZM183.817 12.128C186.281 12.128 187.993 10.864 187.993 8.784C187.993 4.416 181.897 6.272 181.897 3.792C181.897 3.008 182.585 2.496 183.689 2.496C184.873 2.496 185.641 3.152 185.737 4.128H187.753C187.657 2.032 186.057 0.672 183.689 0.672C181.417 0.672 179.833 1.952 179.833 3.792C179.833 8.08 185.849 6.416 185.849 8.816C185.849 9.808 185.017 10.288 183.817 10.288C182.473 10.288 181.641 9.488 181.529 8.24H179.497C179.609 10.592 181.273 12.128 183.817 12.128ZM191.32 12V0.799999H189.192V12H191.32ZM196.817 12.128C199.281 12.128 200.993 10.864 200.993 8.784C200.993 4.416 194.897 6.272 194.897 3.792C194.897 3.008 195.585 2.496 196.689 2.496C197.873 2.496 198.641 3.152 198.737 4.128H200.753C200.657 2.032 199.057 0.672 196.689 0.672C194.417 0.672 192.833 1.952 192.833 3.792C192.833 8.08 198.849 6.416 198.849 8.816C198.849 9.808 198.017 10.288 196.817 10.288C195.473 10.288 194.641 9.488 194.529 8.24H192.497C192.609 10.592 194.273 12.128 196.817 12.128ZM205.212 10.88C205.212 10.3893 205.346 10.048 205.612 9.856C205.879 9.65333 206.204 9.552 206.588 9.552C206.962 9.552 207.282 9.65333 207.548 9.856C207.815 10.048 207.948 10.3893 207.948 10.88C207.948 11.3493 207.815 11.6907 207.548 11.904C207.282 12.1067 206.962 12.208 206.588 12.208C206.204 12.208 205.879 12.1067 205.612 11.904C205.346 11.6907 205.212 11.3493 205.212 10.88ZM209.455 10.88C209.455 10.3893 209.588 10.048 209.855 9.856C210.121 9.65333 210.447 9.552 210.831 9.552C211.204 9.552 211.524 9.65333 211.791 9.856C212.057 10.048 212.191 10.3893 212.191 10.88C212.191 11.3493 212.057 11.6907 211.791 11.904C211.524 12.1067 211.204 12.208 210.831 12.208C210.447 12.208 210.121 12.1067 209.855 11.904C209.588 11.6907 209.455 11.3493 209.455 10.88ZM213.697 10.88C213.697 10.3893 213.831 10.048 214.097 9.856C214.364 9.65333 214.689 9.552 215.073 9.552C215.447 9.552 215.767 9.65333 216.033 9.856C216.3 10.048 216.433 10.3893 216.433 10.88C216.433 11.3493 216.3 11.6907 216.033 11.904C215.767 12.1067 215.447 12.208 215.073 12.208C214.689 12.208 214.364 12.1067 214.097 11.904C213.831 11.6907 213.697 11.3493 213.697 10.88Z" fill="#1A1B1C"/>
</svg>
