<svg width="488" height="69" viewBox="0 0 488 69" fill="none" xmlns="http://www.w3.org/2000/svg">
<path d="M19.8435 56L30.2835 21.86L40.6635 56H45.9435L58.7835 14H53.5635L43.1235 48.26L32.5635 14H28.0035L17.3835 48.26L7.06352 14H1.72352L14.7435 56H19.8435ZM64.9691 56V39.68C64.9691 33.8 68.6891 29.66 73.8491 29.66C78.4091 29.66 81.4091 33.14 81.4091 38.3V56H86.2091V37.52C86.2091 30.14 81.7691 25.28 74.9291 25.28C70.3091 25.28 66.5291 27.38 64.9691 31.58V13.34H60.1691V56H64.9691ZM112.148 46.28C111.188 50.06 108.068 52.22 103.148 52.22C97.4479 52.22 93.3079 47.78 92.9479 41.54H116.588C116.648 41.12 116.708 40.1 116.708 39.44C116.708 31.4 111.428 25.28 102.608 25.28C93.7279 25.28 88.2079 31.82 88.2079 40.7C88.2079 49.34 94.2079 56.48 103.148 56.48C110.648 56.48 115.988 52.46 117.008 46.28H112.148ZM102.608 29.36C108.008 29.36 111.428 32.6 111.788 37.7H93.1879C94.0879 32.36 97.5079 29.36 102.608 29.36ZM135.831 25.76H131.991C127.551 25.76 125.031 27.74 123.771 31.88V25.76H118.971V56H123.771V42.68C123.771 35.54 125.511 30.02 131.631 30.02H135.831V25.76ZM157.537 46.28C156.577 50.06 153.457 52.22 148.537 52.22C142.837 52.22 138.697 47.78 138.337 41.54H161.977C162.037 41.12 162.097 40.1 162.097 39.44C162.097 31.4 156.817 25.28 147.997 25.28C139.117 25.28 133.597 31.82 133.597 40.7C133.597 49.34 139.597 56.48 148.537 56.48C156.037 56.48 161.377 52.46 162.397 46.28H157.537ZM147.997 29.36C153.397 29.36 156.817 32.6 157.177 37.7H138.577C139.477 32.36 142.897 29.36 147.997 29.36ZM186.156 25.28C179.376 25.28 173.856 29.6 173.316 35.42H177.876C178.116 32.12 181.596 29.36 186.036 29.36C191.196 29.36 194.136 32.18 194.136 36.32C194.136 37.28 193.536 37.94 192.216 37.94H185.376C178.056 37.94 173.316 41.6 173.316 47.36C173.316 52.88 177.456 56.48 183.816 56.48C188.496 56.48 192.516 54.26 194.136 50.78V56H198.936V36.5C198.936 29.78 194.016 25.28 186.156 25.28ZM184.536 52.4C180.696 52.4 178.236 50.42 178.236 47.3C178.236 43.76 181.176 41.6 185.676 41.6H194.136V42.38C194.136 48.62 190.596 52.4 184.536 52.4ZM218.699 25.76H214.859C210.419 25.76 207.899 27.74 206.639 31.88V25.76H201.839V56H206.639V42.68C206.639 35.54 208.379 30.02 214.499 30.02H218.699V25.76ZM240.405 46.28C239.445 50.06 236.325 52.22 231.405 52.22C225.705 52.22 221.565 47.78 221.205 41.54H244.845C244.905 41.12 244.965 40.1 244.965 39.44C244.965 31.4 239.685 25.28 230.865 25.28C221.985 25.28 216.465 31.82 216.465 40.7C216.465 49.34 222.465 56.48 231.405 56.48C238.905 56.48 244.245 52.46 245.265 46.28H240.405ZM230.865 29.36C236.265 29.36 239.685 32.6 240.045 37.7H221.445C222.345 32.36 225.765 29.36 230.865 29.36ZM276.284 25.76L267.704 49.76L259.124 25.76H254.144L265.424 56.48L261.584 68.24H266.204L271.724 51.86L281.324 25.76H276.284ZM294.459 56.48C303.459 56.48 309.879 49.94 309.879 40.88C309.879 31.76 303.459 25.28 294.459 25.28C285.519 25.28 279.099 31.76 279.099 40.88C279.099 49.94 285.519 56.48 294.459 56.48ZM294.459 52.16C288.279 52.16 284.019 47.48 284.019 40.88C284.019 34.28 288.279 29.6 294.459 29.6C300.699 29.6 304.959 34.28 304.959 40.88C304.959 47.48 300.699 52.16 294.459 52.16ZM333.094 25.76V42.08C333.094 47.96 329.434 52.1 324.214 52.1C319.654 52.1 316.654 48.62 316.654 43.46V25.76H311.854V44.24C311.854 51.62 316.294 56.48 323.134 56.48C327.814 56.48 331.534 54.38 333.094 50.18V56H337.894V25.76H333.094ZM359.835 56V30.02H369.255V25.76H359.835V22.76C359.835 19.52 361.755 17.6 364.695 17.6H369.255V13.34H364.455C358.695 13.34 355.035 16.94 355.035 22.7V25.76H348.735V30.02H355.035V56H359.835ZM387.13 25.76H383.29C378.85 25.76 376.33 27.74 375.07 31.88V25.76H370.27V56H375.07V42.68C375.07 35.54 376.81 30.02 382.93 30.02H387.13V25.76ZM400.256 56.48C409.256 56.48 415.676 49.94 415.676 40.88C415.676 31.76 409.256 25.28 400.256 25.28C391.316 25.28 384.896 31.76 384.896 40.88C384.896 49.94 391.316 56.48 400.256 56.48ZM400.256 52.16C394.076 52.16 389.816 47.48 389.816 40.88C389.816 34.28 394.076 29.6 400.256 29.6C406.496 29.6 410.756 34.28 410.756 40.88C410.756 47.48 406.496 52.16 400.256 52.16ZM422.451 56V38.24C422.451 33.08 425.451 29.54 430.551 29.54C434.751 29.54 437.331 33.08 437.331 38.24V56H442.131V38.24C442.131 33.08 445.131 29.54 450.171 29.54C454.431 29.54 457.011 33.08 457.011 38.24V56H461.811V36.98C461.811 29.66 457.851 25.28 451.311 25.28C446.691 25.28 442.671 28.1 441.531 31.7C440.451 27.56 436.551 25.28 431.571 25.28C426.951 25.28 423.591 27.92 422.451 31.58V25.76H417.651V56H422.451ZM469.981 42.32C469.981 40.8 470.121 39.5 470.401 38.42C470.721 37.3 471.241 36.24 471.961 35.24C472.721 34.24 473.741 33.2 475.021 32.12C476.581 30.8 477.781 29.7 478.621 28.82C479.501 27.94 480.121 27.08 480.481 26.24C480.841 25.4 481.021 24.38 481.021 23.18C481.021 21.26 480.401 19.78 479.161 18.74C477.921 17.7 476.121 17.18 473.761 17.18C471.801 17.18 470.061 17.44 468.541 17.96C467.021 18.44 465.561 19.02 464.161 19.7L462.301 15.5C463.901 14.66 465.661 13.96 467.581 13.4C469.541 12.84 471.721 12.56 474.121 12.56C477.921 12.56 480.861 13.5 482.941 15.38C485.021 17.26 486.061 19.82 486.061 23.06C486.061 24.86 485.761 26.4 485.161 27.68C484.601 28.92 483.781 30.08 482.701 31.16C481.661 32.2 480.421 33.32 478.981 34.52C477.661 35.64 476.641 36.62 475.921 37.46C475.241 38.3 474.781 39.14 474.541 39.98C474.301 40.78 474.181 41.76 474.181 42.92V43.94H469.981V42.32ZM468.601 52.76C468.601 51.28 468.941 50.24 469.621 49.64C470.341 49.04 471.241 48.74 472.321 48.74C473.321 48.74 474.181 49.04 474.901 49.64C475.621 50.24 475.981 51.28 475.981 52.76C475.981 54.2 475.621 55.24 474.901 55.88C474.181 56.52 473.321 56.84 472.321 56.84C471.241 56.84 470.341 56.52 469.621 55.88C468.941 55.24 468.601 54.2 468.601 52.76Z" fill="#1A1B1C"/>
<rect x="3" y="64" width="481" height="1" fill="#1A1B1C"/>
</svg>
